<svg xmlns="http://www.w3.org/2000/svg" viewBox="0 0 64 64">
  <defs>
    <linearGradient id="g" x1="0" y1="0" x2="1" y2="1">
      <stop offset="0" stop-color="#ef4444"/>
      <stop offset="1" stop-color="#dc2626"/>
    </linearGradient>
  </defs>
  <circle cx="32" cy="32" r="28" fill="url(#g)"/>
  <circle cx="23" cy="27" r="3.5" fill="#ffffff"/>
  <circle cx="41" cy="27" r="3.5" fill="#ffffff"/>
  <circle cx="23" cy="27" r="1.5" fill="#1f2937"/>
  <circle cx="41" cy="27" r="1.5" fill="#1f2937"/>
  <path d="M18 39c4 3 8 4 14 4s10-1 14-4" fill="none" stroke="#ffffff" stroke-width="3" stroke-linecap="round"/>
  <path d="M12 50c3-2 6-2 9 0M22 53c3-2 6-2 9 0M33 53c3-2 6-2 9 0M43 50c3-2 6-2 9 0" fill="none" stroke="#ffffff" stroke-width="2.4" stroke-linecap="round"/>
</svg>
